<mxfile host="65bd71144e" pages="3">
    <diagram id="ILsuDi99UKR0qeGbidP1" name="Order Unit">
        <mxGraphModel dx="1778" dy="1353" grid="1" gridSize="10" guides="1" tooltips="1" connect="1" arrows="1" fold="1" page="1" pageScale="1" pageWidth="850" pageHeight="1100" math="0" shadow="0">
            <root>
                <mxCell id="vcM7IYLUsMrzzwx1DQUQ-0"/>
                <mxCell id="vcM7IYLUsMrzzwx1DQUQ-1" parent="vcM7IYLUsMrzzwx1DQUQ-0"/>
                <mxCell id="tAt5nxoeN-rRa-Il4vab-0" value="users" style="swimlane;fontStyle=0;childLayout=stackLayout;horizontal=1;startSize=26;fillColor=#f5f5f5;horizontalStack=0;resizeParent=1;resizeParentMax=0;resizeLast=0;collapsible=1;marginBottom=0;swimlaneFillColor=#ffffff;align=center;fontSize=14;strokeColor=#666666;fontColor=#333333;rounded=1;" parent="vcM7IYLUsMrzzwx1DQUQ-1" vertex="1">
                    <mxGeometry x="219" y="-880" width="162" height="238" as="geometry"/>
                </mxCell>
                <mxCell id="tAt5nxoeN-rRa-Il4vab-1" value="id" style="shape=partialRectangle;top=0;left=0;right=0;bottom=1;align=left;verticalAlign=middle;fillColor=#f5f5f5;spacingLeft=34;spacingRight=4;overflow=hidden;rotatable=0;points=[[0,0.5],[1,0.5]];portConstraint=eastwest;dropTarget=0;fontStyle=5;fontSize=12;fontColor=#333333;strokeColor=#666666;rounded=1;" parent="tAt5nxoeN-rRa-Il4vab-0" vertex="1">
                    <mxGeometry y="26" width="162" height="30" as="geometry"/>
                </mxCell>
                <mxCell id="tAt5nxoeN-rRa-Il4vab-2" value="PK" style="shape=partialRectangle;top=0;left=0;bottom=0;fillColor=#f5f5f5;align=left;verticalAlign=middle;spacingLeft=4;spacingRight=4;overflow=hidden;rotatable=0;points=[];portConstraint=eastwest;part=1;fontSize=12;fontColor=#333333;strokeColor=#666666;rounded=1;" parent="tAt5nxoeN-rRa-Il4vab-1" vertex="1" connectable="0">
                    <mxGeometry width="30" height="30" as="geometry"/>
                </mxCell>
                <mxCell id="tAt5nxoeN-rRa-Il4vab-3" value="name" style="shape=partialRectangle;top=0;left=0;right=0;bottom=0;align=left;verticalAlign=top;fillColor=#f5f5f5;spacingLeft=34;spacingRight=4;overflow=hidden;rotatable=0;points=[[0,0.5],[1,0.5]];portConstraint=eastwest;dropTarget=0;fontSize=12;fontColor=#333333;strokeColor=#666666;rounded=1;" parent="tAt5nxoeN-rRa-Il4vab-0" vertex="1">
                    <mxGeometry y="56" width="162" height="26" as="geometry"/>
                </mxCell>
                <mxCell id="tAt5nxoeN-rRa-Il4vab-4" value="" style="shape=partialRectangle;top=0;left=0;bottom=0;fillColor=#f5f5f5;align=left;verticalAlign=top;spacingLeft=4;spacingRight=4;overflow=hidden;rotatable=0;points=[];portConstraint=eastwest;part=1;fontSize=12;fontColor=#333333;strokeColor=#666666;rounded=1;" parent="tAt5nxoeN-rRa-Il4vab-3" vertex="1" connectable="0">
                    <mxGeometry width="30" height="26" as="geometry"/>
                </mxCell>
                <mxCell id="tAt5nxoeN-rRa-Il4vab-5" value="email" style="shape=partialRectangle;top=0;left=0;right=0;bottom=0;align=left;verticalAlign=top;fillColor=#f5f5f5;spacingLeft=34;spacingRight=4;overflow=hidden;rotatable=0;points=[[0,0.5],[1,0.5]];portConstraint=eastwest;dropTarget=0;fontSize=12;fontColor=#333333;strokeColor=#666666;rounded=1;" parent="tAt5nxoeN-rRa-Il4vab-0" vertex="1">
                    <mxGeometry y="82" width="162" height="26" as="geometry"/>
                </mxCell>
                <mxCell id="tAt5nxoeN-rRa-Il4vab-6" value="" style="shape=partialRectangle;top=0;left=0;bottom=0;fillColor=#f5f5f5;align=left;verticalAlign=top;spacingLeft=4;spacingRight=4;overflow=hidden;rotatable=0;points=[];portConstraint=eastwest;part=1;fontSize=12;fontColor=#333333;strokeColor=#666666;rounded=1;" parent="tAt5nxoeN-rRa-Il4vab-5" vertex="1" connectable="0">
                    <mxGeometry width="30" height="26" as="geometry"/>
                </mxCell>
                <mxCell id="tAt5nxoeN-rRa-Il4vab-7" value="password" style="shape=partialRectangle;top=0;left=0;right=0;bottom=0;align=left;verticalAlign=top;fillColor=#f5f5f5;spacingLeft=34;spacingRight=4;overflow=hidden;rotatable=0;points=[[0,0.5],[1,0.5]];portConstraint=eastwest;dropTarget=0;fontSize=12;fontColor=#333333;strokeColor=#666666;rounded=1;" parent="tAt5nxoeN-rRa-Il4vab-0" vertex="1">
                    <mxGeometry y="108" width="162" height="26" as="geometry"/>
                </mxCell>
                <mxCell id="tAt5nxoeN-rRa-Il4vab-8" value="" style="shape=partialRectangle;top=0;left=0;bottom=0;fillColor=#f5f5f5;align=left;verticalAlign=top;spacingLeft=4;spacingRight=4;overflow=hidden;rotatable=0;points=[];portConstraint=eastwest;part=1;fontSize=12;fontColor=#333333;strokeColor=#666666;rounded=1;" parent="tAt5nxoeN-rRa-Il4vab-7" vertex="1" connectable="0">
                    <mxGeometry width="30" height="26" as="geometry"/>
                </mxCell>
                <mxCell id="tAt5nxoeN-rRa-Il4vab-9" value="date_of_birth" style="shape=partialRectangle;top=0;left=0;right=0;bottom=0;align=left;verticalAlign=top;fillColor=#f5f5f5;spacingLeft=34;spacingRight=4;overflow=hidden;rotatable=0;points=[[0,0.5],[1,0.5]];portConstraint=eastwest;dropTarget=0;fontSize=12;fontColor=#333333;strokeColor=#666666;rounded=1;" parent="tAt5nxoeN-rRa-Il4vab-0" vertex="1">
                    <mxGeometry y="134" width="162" height="26" as="geometry"/>
                </mxCell>
                <mxCell id="tAt5nxoeN-rRa-Il4vab-10" value="" style="shape=partialRectangle;top=0;left=0;bottom=0;fillColor=#f5f5f5;align=left;verticalAlign=top;spacingLeft=4;spacingRight=4;overflow=hidden;rotatable=0;points=[];portConstraint=eastwest;part=1;fontSize=12;fontColor=#333333;strokeColor=#666666;rounded=1;" parent="tAt5nxoeN-rRa-Il4vab-9" vertex="1" connectable="0">
                    <mxGeometry width="30" height="26" as="geometry"/>
                </mxCell>
                <mxCell id="tAt5nxoeN-rRa-Il4vab-11" value="status" style="shape=partialRectangle;top=0;left=0;right=0;bottom=0;align=left;verticalAlign=top;fillColor=#f5f5f5;spacingLeft=34;spacingRight=4;overflow=hidden;rotatable=0;points=[[0,0.5],[1,0.5]];portConstraint=eastwest;dropTarget=0;fontSize=12;fontColor=#333333;strokeColor=#666666;rounded=1;" parent="tAt5nxoeN-rRa-Il4vab-0" vertex="1">
                    <mxGeometry y="160" width="162" height="26" as="geometry"/>
                </mxCell>
                <mxCell id="tAt5nxoeN-rRa-Il4vab-12" value="enum" style="shape=partialRectangle;top=0;left=0;bottom=0;fillColor=#f5f5f5;align=left;verticalAlign=top;spacingLeft=4;spacingRight=4;overflow=hidden;rotatable=0;points=[];portConstraint=eastwest;part=1;fontSize=12;fontColor=#333333;strokeColor=#666666;rounded=1;" parent="tAt5nxoeN-rRa-Il4vab-11" vertex="1" connectable="0">
                    <mxGeometry width="30" height="26" as="geometry"/>
                </mxCell>
                <mxCell id="tAt5nxoeN-rRa-Il4vab-13" value="created_at" style="shape=partialRectangle;top=0;left=0;right=0;bottom=0;align=left;verticalAlign=top;fillColor=#f5f5f5;spacingLeft=34;spacingRight=4;overflow=hidden;rotatable=0;points=[[0,0.5],[1,0.5]];portConstraint=eastwest;dropTarget=0;fontSize=12;fontColor=#333333;strokeColor=#666666;rounded=1;" parent="tAt5nxoeN-rRa-Il4vab-0" vertex="1">
                    <mxGeometry y="186" width="162" height="26" as="geometry"/>
                </mxCell>
                <mxCell id="tAt5nxoeN-rRa-Il4vab-14" value="" style="shape=partialRectangle;top=0;left=0;bottom=0;fillColor=#f5f5f5;align=left;verticalAlign=top;spacingLeft=4;spacingRight=4;overflow=hidden;rotatable=0;points=[];portConstraint=eastwest;part=1;fontSize=12;fontColor=#333333;strokeColor=#666666;rounded=1;" parent="tAt5nxoeN-rRa-Il4vab-13" vertex="1" connectable="0">
                    <mxGeometry width="30" height="26" as="geometry"/>
                </mxCell>
                <mxCell id="tAt5nxoeN-rRa-Il4vab-15" value="updated_at" style="shape=partialRectangle;top=0;left=0;right=0;bottom=0;align=left;verticalAlign=top;fillColor=#f5f5f5;spacingLeft=34;spacingRight=4;overflow=hidden;rotatable=0;points=[[0,0.5],[1,0.5]];portConstraint=eastwest;dropTarget=0;fontSize=12;fontColor=#333333;strokeColor=#666666;rounded=1;" parent="tAt5nxoeN-rRa-Il4vab-0" vertex="1">
                    <mxGeometry y="212" width="162" height="26" as="geometry"/>
                </mxCell>
                <mxCell id="tAt5nxoeN-rRa-Il4vab-16" value="" style="shape=partialRectangle;top=0;left=0;bottom=0;fillColor=#f5f5f5;align=left;verticalAlign=top;spacingLeft=4;spacingRight=4;overflow=hidden;rotatable=0;points=[];portConstraint=eastwest;part=1;fontSize=12;fontColor=#333333;strokeColor=#666666;rounded=1;" parent="tAt5nxoeN-rRa-Il4vab-15" vertex="1" connectable="0">
                    <mxGeometry width="30" height="26" as="geometry"/>
                </mxCell>
                <mxCell id="k5NsuN3QZmuKokKL-RZl-0" style="edgeStyle=orthogonalEdgeStyle;orthogonalLoop=1;jettySize=auto;html=1;shadow=1;curved=1;" parent="vcM7IYLUsMrzzwx1DQUQ-1" source="k5NsuN3QZmuKokKL-RZl-16" target="k5NsuN3QZmuKokKL-RZl-6" edge="1">
                    <mxGeometry relative="1" as="geometry"/>
                </mxCell>
                <mxCell id="k5NsuN3QZmuKokKL-RZl-1" style="edgeStyle=orthogonalEdgeStyle;orthogonalLoop=1;jettySize=auto;html=1;entryX=0;entryY=0.5;entryDx=0;entryDy=0;shadow=1;curved=1;" parent="vcM7IYLUsMrzzwx1DQUQ-1" source="k5NsuN3QZmuKokKL-RZl-16" target="k5NsuN3QZmuKokKL-RZl-11" edge="1">
                    <mxGeometry relative="1" as="geometry"/>
                </mxCell>
                <mxCell id="k5NsuN3QZmuKokKL-RZl-2" style="edgeStyle=orthogonalEdgeStyle;orthogonalLoop=1;jettySize=auto;html=1;shadow=1;curved=1;" parent="vcM7IYLUsMrzzwx1DQUQ-1" source="k5NsuN3QZmuKokKL-RZl-25" target="k5NsuN3QZmuKokKL-RZl-13" edge="1">
                    <mxGeometry relative="1" as="geometry"/>
                </mxCell>
                <mxCell id="k5NsuN3QZmuKokKL-RZl-3" value="model_has_role" style="swimlane;fontStyle=0;childLayout=stackLayout;horizontal=1;startSize=26;fillColor=#f5f5f5;horizontalStack=0;resizeParent=1;resizeParentMax=0;resizeLast=0;collapsible=1;marginBottom=0;swimlaneFillColor=#ffffff;align=center;fontSize=14;fontColor=#333333;strokeColor=#666666;rounded=1;" parent="vcM7IYLUsMrzzwx1DQUQ-1" vertex="1">
                    <mxGeometry x="219" y="-1086.5" width="162" height="182" as="geometry"/>
                </mxCell>
                <mxCell id="k5NsuN3QZmuKokKL-RZl-4" value="model_id" style="shape=partialRectangle;top=0;left=0;right=0;bottom=0;align=left;verticalAlign=top;fillColor=#f5f5f5;spacingLeft=34;spacingRight=4;overflow=hidden;rotatable=0;points=[[0,0.5],[1,0.5]];portConstraint=eastwest;dropTarget=0;fontSize=12;fontColor=#333333;strokeColor=#666666;rounded=1;" parent="k5NsuN3QZmuKokKL-RZl-3" vertex="1">
                    <mxGeometry y="26" width="162" height="26" as="geometry"/>
                </mxCell>
                <mxCell id="k5NsuN3QZmuKokKL-RZl-5" value="FK" style="shape=partialRectangle;top=0;left=0;bottom=0;fillColor=#f5f5f5;align=left;verticalAlign=top;spacingLeft=4;spacingRight=4;overflow=hidden;rotatable=0;points=[];portConstraint=eastwest;part=1;fontSize=12;fontColor=#333333;strokeColor=#666666;rounded=1;" parent="k5NsuN3QZmuKokKL-RZl-4" vertex="1" connectable="0">
                    <mxGeometry width="30" height="26" as="geometry"/>
                </mxCell>
                <mxCell id="k5NsuN3QZmuKokKL-RZl-6" value="role_id" style="shape=partialRectangle;top=0;left=0;right=0;bottom=0;align=left;verticalAlign=top;fillColor=#f5f5f5;spacingLeft=34;spacingRight=4;overflow=hidden;rotatable=0;points=[[0,0.5],[1,0.5]];portConstraint=eastwest;dropTarget=0;fontSize=12;fontColor=#333333;strokeColor=#666666;rounded=1;" parent="k5NsuN3QZmuKokKL-RZl-3" vertex="1">
                    <mxGeometry y="52" width="162" height="26" as="geometry"/>
                </mxCell>
                <mxCell id="k5NsuN3QZmuKokKL-RZl-7" value="FK" style="shape=partialRectangle;top=0;left=0;bottom=0;fillColor=#f5f5f5;align=left;verticalAlign=top;spacingLeft=4;spacingRight=4;overflow=hidden;rotatable=0;points=[];portConstraint=eastwest;part=1;fontSize=12;fontColor=#333333;strokeColor=#666666;rounded=1;" parent="k5NsuN3QZmuKokKL-RZl-6" vertex="1" connectable="0">
                    <mxGeometry width="30" height="26" as="geometry"/>
                </mxCell>
                <mxCell id="k5NsuN3QZmuKokKL-RZl-8" value="model_type" style="shape=partialRectangle;top=0;left=0;right=0;bottom=0;align=left;verticalAlign=top;fillColor=#f5f5f5;spacingLeft=34;spacingRight=4;overflow=hidden;rotatable=0;points=[[0,0.5],[1,0.5]];portConstraint=eastwest;dropTarget=0;fontSize=12;fontColor=#333333;strokeColor=#666666;rounded=1;" parent="k5NsuN3QZmuKokKL-RZl-3" vertex="1">
                    <mxGeometry y="78" width="162" height="26" as="geometry"/>
                </mxCell>
                <mxCell id="k5NsuN3QZmuKokKL-RZl-9" value="" style="shape=partialRectangle;top=0;left=0;bottom=0;fillColor=#f5f5f5;align=left;verticalAlign=top;spacingLeft=4;spacingRight=4;overflow=hidden;rotatable=0;points=[];portConstraint=eastwest;part=1;fontSize=12;fontColor=#333333;strokeColor=#666666;rounded=1;" parent="k5NsuN3QZmuKokKL-RZl-8" vertex="1" connectable="0">
                    <mxGeometry width="30" height="26" as="geometry"/>
                </mxCell>
                <mxCell id="k5NsuN3QZmuKokKL-RZl-10" value="permission_has_role" style="swimlane;fontStyle=0;childLayout=stackLayout;horizontal=1;startSize=26;fillColor=#f5f5f5;horizontalStack=0;resizeParent=1;resizeParentMax=0;resizeLast=0;collapsible=1;marginBottom=0;swimlaneFillColor=#ffffff;align=center;fontSize=14;fontColor=#333333;strokeColor=#666666;rounded=1;" parent="k5NsuN3QZmuKokKL-RZl-3" vertex="1">
                    <mxGeometry y="104" width="162" height="78" as="geometry"/>
                </mxCell>
                <mxCell id="k5NsuN3QZmuKokKL-RZl-11" value="role_id" style="shape=partialRectangle;top=0;left=0;right=0;bottom=0;align=left;verticalAlign=top;fillColor=#f5f5f5;spacingLeft=34;spacingRight=4;overflow=hidden;rotatable=0;points=[[0,0.5],[1,0.5]];portConstraint=eastwest;dropTarget=0;fontSize=12;fontColor=#333333;strokeColor=#666666;rounded=1;" parent="k5NsuN3QZmuKokKL-RZl-10" vertex="1">
                    <mxGeometry y="26" width="162" height="26" as="geometry"/>
                </mxCell>
                <mxCell id="k5NsuN3QZmuKokKL-RZl-12" value="PK" style="shape=partialRectangle;top=0;left=0;bottom=0;fillColor=#f5f5f5;align=left;verticalAlign=top;spacingLeft=4;spacingRight=4;overflow=hidden;rotatable=0;points=[];portConstraint=eastwest;part=1;fontSize=12;fontColor=#333333;strokeColor=#666666;rounded=1;" parent="k5NsuN3QZmuKokKL-RZl-11" vertex="1" connectable="0">
                    <mxGeometry width="30" height="26" as="geometry"/>
                </mxCell>
                <mxCell id="k5NsuN3QZmuKokKL-RZl-13" value="permission_id" style="shape=partialRectangle;top=0;left=0;right=0;bottom=0;align=left;verticalAlign=top;fillColor=#f5f5f5;spacingLeft=34;spacingRight=4;overflow=hidden;rotatable=0;points=[[0,0.5],[1,0.5]];portConstraint=eastwest;dropTarget=0;fontSize=12;fontColor=#333333;strokeColor=#666666;rounded=1;" parent="k5NsuN3QZmuKokKL-RZl-10" vertex="1">
                    <mxGeometry y="52" width="162" height="26" as="geometry"/>
                </mxCell>
                <mxCell id="k5NsuN3QZmuKokKL-RZl-14" value="PK" style="shape=partialRectangle;top=0;left=0;bottom=0;fillColor=#f5f5f5;align=left;verticalAlign=top;spacingLeft=4;spacingRight=4;overflow=hidden;rotatable=0;points=[];portConstraint=eastwest;part=1;fontSize=12;fontColor=#333333;strokeColor=#666666;rounded=1;" parent="k5NsuN3QZmuKokKL-RZl-13" vertex="1" connectable="0">
                    <mxGeometry width="30" height="26" as="geometry"/>
                </mxCell>
                <mxCell id="k5NsuN3QZmuKokKL-RZl-15" value="roles" style="swimlane;fontStyle=0;childLayout=stackLayout;horizontal=1;startSize=26;fillColor=#f5f5f5;horizontalStack=0;resizeParent=1;resizeParentMax=0;resizeLast=0;collapsible=1;marginBottom=0;swimlaneFillColor=#ffffff;align=center;fontSize=14;fontColor=#333333;strokeColor=#666666;rounded=1;" parent="vcM7IYLUsMrzzwx1DQUQ-1" vertex="1">
                    <mxGeometry y="-1100" width="160" height="294" as="geometry"/>
                </mxCell>
                <mxCell id="k5NsuN3QZmuKokKL-RZl-16" value="id" style="shape=partialRectangle;top=0;left=0;right=0;bottom=1;align=left;verticalAlign=middle;fillColor=#f5f5f5;spacingLeft=34;spacingRight=4;overflow=hidden;rotatable=0;points=[[0,0.5],[1,0.5]];portConstraint=eastwest;dropTarget=0;fontStyle=5;fontSize=12;fontColor=#333333;strokeColor=#666666;rounded=1;" parent="k5NsuN3QZmuKokKL-RZl-15" vertex="1">
                    <mxGeometry y="26" width="160" height="30" as="geometry"/>
                </mxCell>
                <mxCell id="k5NsuN3QZmuKokKL-RZl-17" value="PK" style="shape=partialRectangle;top=0;left=0;bottom=0;fillColor=#f5f5f5;align=left;verticalAlign=middle;spacingLeft=4;spacingRight=4;overflow=hidden;rotatable=0;points=[];portConstraint=eastwest;part=1;fontSize=12;fontColor=#333333;strokeColor=#666666;rounded=1;" parent="k5NsuN3QZmuKokKL-RZl-16" vertex="1" connectable="0">
                    <mxGeometry width="30" height="30" as="geometry"/>
                </mxCell>
                <mxCell id="k5NsuN3QZmuKokKL-RZl-18" value="name" style="shape=partialRectangle;top=0;left=0;right=0;bottom=0;align=left;verticalAlign=top;fillColor=#f5f5f5;spacingLeft=34;spacingRight=4;overflow=hidden;rotatable=0;points=[[0,0.5],[1,0.5]];portConstraint=eastwest;dropTarget=0;fontSize=12;fontColor=#333333;strokeColor=#666666;rounded=1;" parent="k5NsuN3QZmuKokKL-RZl-15" vertex="1">
                    <mxGeometry y="56" width="160" height="26" as="geometry"/>
                </mxCell>
                <mxCell id="k5NsuN3QZmuKokKL-RZl-19" value="" style="shape=partialRectangle;top=0;left=0;bottom=0;fillColor=#f5f5f5;align=left;verticalAlign=top;spacingLeft=4;spacingRight=4;overflow=hidden;rotatable=0;points=[];portConstraint=eastwest;part=1;fontSize=12;fontColor=#333333;strokeColor=#666666;rounded=1;" parent="k5NsuN3QZmuKokKL-RZl-18" vertex="1" connectable="0">
                    <mxGeometry width="30" height="26" as="geometry"/>
                </mxCell>
                <mxCell id="k5NsuN3QZmuKokKL-RZl-20" value="guard_type" style="shape=partialRectangle;top=0;left=0;right=0;bottom=0;align=left;verticalAlign=top;fillColor=#f5f5f5;spacingLeft=34;spacingRight=4;overflow=hidden;rotatable=0;points=[[0,0.5],[1,0.5]];portConstraint=eastwest;dropTarget=0;fontSize=12;fontColor=#333333;strokeColor=#666666;rounded=1;" parent="k5NsuN3QZmuKokKL-RZl-15" vertex="1">
                    <mxGeometry y="82" width="160" height="26" as="geometry"/>
                </mxCell>
                <mxCell id="k5NsuN3QZmuKokKL-RZl-21" value="" style="shape=partialRectangle;top=0;left=0;bottom=0;fillColor=#f5f5f5;align=left;verticalAlign=top;spacingLeft=4;spacingRight=4;overflow=hidden;rotatable=0;points=[];portConstraint=eastwest;part=1;fontSize=12;fontColor=#333333;strokeColor=#666666;rounded=1;" parent="k5NsuN3QZmuKokKL-RZl-20" vertex="1" connectable="0">
                    <mxGeometry width="30" height="26" as="geometry"/>
                </mxCell>
                <mxCell id="k5NsuN3QZmuKokKL-RZl-22" value="guard_name" style="shape=partialRectangle;top=0;left=0;right=0;bottom=0;align=left;verticalAlign=top;fillColor=#f5f5f5;spacingLeft=34;spacingRight=4;overflow=hidden;rotatable=0;points=[[0,0.5],[1,0.5]];portConstraint=eastwest;dropTarget=0;fontSize=12;fontColor=#333333;strokeColor=#666666;rounded=1;" parent="k5NsuN3QZmuKokKL-RZl-15" vertex="1">
                    <mxGeometry y="108" width="160" height="26" as="geometry"/>
                </mxCell>
                <mxCell id="k5NsuN3QZmuKokKL-RZl-23" value="" style="shape=partialRectangle;top=0;left=0;bottom=0;fillColor=#f5f5f5;align=left;verticalAlign=top;spacingLeft=4;spacingRight=4;overflow=hidden;rotatable=0;points=[];portConstraint=eastwest;part=1;fontSize=12;fontColor=#333333;strokeColor=#666666;rounded=1;" parent="k5NsuN3QZmuKokKL-RZl-22" vertex="1" connectable="0">
                    <mxGeometry width="30" height="26" as="geometry"/>
                </mxCell>
                <mxCell id="k5NsuN3QZmuKokKL-RZl-24" value="permission" style="swimlane;fontStyle=0;childLayout=stackLayout;horizontal=1;startSize=26;fillColor=#f5f5f5;horizontalStack=0;resizeParent=1;resizeParentMax=0;resizeLast=0;collapsible=1;marginBottom=0;swimlaneFillColor=#ffffff;align=center;fontSize=14;fontColor=#333333;strokeColor=#666666;rounded=1;" parent="k5NsuN3QZmuKokKL-RZl-15" vertex="1">
                    <mxGeometry y="134" width="160" height="160" as="geometry"/>
                </mxCell>
                <mxCell id="k5NsuN3QZmuKokKL-RZl-25" value="id" style="shape=partialRectangle;top=0;left=0;right=0;bottom=1;align=left;verticalAlign=middle;fillColor=#f5f5f5;spacingLeft=34;spacingRight=4;overflow=hidden;rotatable=0;points=[[0,0.5],[1,0.5]];portConstraint=eastwest;dropTarget=0;fontStyle=5;fontSize=12;fontColor=#333333;strokeColor=#666666;rounded=1;" parent="k5NsuN3QZmuKokKL-RZl-24" vertex="1">
                    <mxGeometry y="26" width="160" height="30" as="geometry"/>
                </mxCell>
                <mxCell id="k5NsuN3QZmuKokKL-RZl-26" value="PK" style="shape=partialRectangle;top=0;left=0;bottom=0;fillColor=#f5f5f5;align=left;verticalAlign=middle;spacingLeft=4;spacingRight=4;overflow=hidden;rotatable=0;points=[];portConstraint=eastwest;part=1;fontSize=12;fontColor=#333333;strokeColor=#666666;rounded=1;" parent="k5NsuN3QZmuKokKL-RZl-25" vertex="1" connectable="0">
                    <mxGeometry width="30" height="30" as="geometry"/>
                </mxCell>
                <mxCell id="k5NsuN3QZmuKokKL-RZl-27" value="name" style="shape=partialRectangle;top=0;left=0;right=0;bottom=0;align=left;verticalAlign=top;fillColor=#f5f5f5;spacingLeft=34;spacingRight=4;overflow=hidden;rotatable=0;points=[[0,0.5],[1,0.5]];portConstraint=eastwest;dropTarget=0;fontSize=12;fontColor=#333333;strokeColor=#666666;rounded=1;" parent="k5NsuN3QZmuKokKL-RZl-24" vertex="1">
                    <mxGeometry y="56" width="160" height="26" as="geometry"/>
                </mxCell>
                <mxCell id="k5NsuN3QZmuKokKL-RZl-28" value="" style="shape=partialRectangle;top=0;left=0;bottom=0;fillColor=#f5f5f5;align=left;verticalAlign=top;spacingLeft=4;spacingRight=4;overflow=hidden;rotatable=0;points=[];portConstraint=eastwest;part=1;fontSize=12;fontColor=#333333;strokeColor=#666666;rounded=1;" parent="k5NsuN3QZmuKokKL-RZl-27" vertex="1" connectable="0">
                    <mxGeometry width="30" height="26" as="geometry"/>
                </mxCell>
                <mxCell id="k5NsuN3QZmuKokKL-RZl-29" value="alias_name" style="shape=partialRectangle;top=0;left=0;right=0;bottom=0;align=left;verticalAlign=top;fillColor=#f5f5f5;spacingLeft=34;spacingRight=4;overflow=hidden;rotatable=0;points=[[0,0.5],[1,0.5]];portConstraint=eastwest;dropTarget=0;fontSize=12;fontColor=#333333;strokeColor=#666666;rounded=1;" parent="k5NsuN3QZmuKokKL-RZl-24" vertex="1">
                    <mxGeometry y="82" width="160" height="26" as="geometry"/>
                </mxCell>
                <mxCell id="k5NsuN3QZmuKokKL-RZl-30" value="" style="shape=partialRectangle;top=0;left=0;bottom=0;fillColor=#f5f5f5;align=left;verticalAlign=top;spacingLeft=4;spacingRight=4;overflow=hidden;rotatable=0;points=[];portConstraint=eastwest;part=1;fontSize=12;fontColor=#333333;strokeColor=#666666;rounded=1;" parent="k5NsuN3QZmuKokKL-RZl-29" vertex="1" connectable="0">
                    <mxGeometry width="30" height="26" as="geometry"/>
                </mxCell>
                <mxCell id="k5NsuN3QZmuKokKL-RZl-31" value="model_name" style="shape=partialRectangle;top=0;left=0;right=0;bottom=0;align=left;verticalAlign=top;fillColor=#f5f5f5;spacingLeft=34;spacingRight=4;overflow=hidden;rotatable=0;points=[[0,0.5],[1,0.5]];portConstraint=eastwest;dropTarget=0;fontSize=12;fontColor=#333333;strokeColor=#666666;rounded=1;" parent="k5NsuN3QZmuKokKL-RZl-24" vertex="1">
                    <mxGeometry y="108" width="160" height="26" as="geometry"/>
                </mxCell>
                <mxCell id="k5NsuN3QZmuKokKL-RZl-32" value="" style="shape=partialRectangle;top=0;left=0;bottom=0;fillColor=#f5f5f5;align=left;verticalAlign=top;spacingLeft=4;spacingRight=4;overflow=hidden;rotatable=0;points=[];portConstraint=eastwest;part=1;fontSize=12;fontColor=#333333;strokeColor=#666666;rounded=1;" parent="k5NsuN3QZmuKokKL-RZl-31" vertex="1" connectable="0">
                    <mxGeometry width="30" height="26" as="geometry"/>
                </mxCell>
                <mxCell id="k5NsuN3QZmuKokKL-RZl-33" value="guard_name" style="shape=partialRectangle;top=0;left=0;right=0;bottom=0;align=left;verticalAlign=top;fillColor=#f5f5f5;spacingLeft=34;spacingRight=4;overflow=hidden;rotatable=0;points=[[0,0.5],[1,0.5]];portConstraint=eastwest;dropTarget=0;fontSize=12;fontColor=#333333;strokeColor=#666666;rounded=1;" parent="k5NsuN3QZmuKokKL-RZl-24" vertex="1">
                    <mxGeometry y="134" width="160" height="26" as="geometry"/>
                </mxCell>
                <mxCell id="k5NsuN3QZmuKokKL-RZl-34" value="" style="shape=partialRectangle;top=0;left=0;bottom=0;fillColor=#f5f5f5;align=left;verticalAlign=top;spacingLeft=4;spacingRight=4;overflow=hidden;rotatable=0;points=[];portConstraint=eastwest;part=1;fontSize=12;fontColor=#333333;strokeColor=#666666;rounded=1;" parent="k5NsuN3QZmuKokKL-RZl-33" vertex="1" connectable="0">
                    <mxGeometry width="30" height="26" as="geometry"/>
                </mxCell>
                <mxCell id="k5NsuN3QZmuKokKL-RZl-35" value="password_resets" style="swimlane;fontStyle=0;childLayout=stackLayout;horizontal=1;startSize=26;fillColor=#f5f5f5;horizontalStack=0;resizeParent=1;resizeParentMax=0;resizeLast=0;collapsible=1;marginBottom=0;swimlaneFillColor=#ffffff;align=center;fontSize=14;fontColor=#333333;strokeColor=#666666;rounded=1;" parent="vcM7IYLUsMrzzwx1DQUQ-1" vertex="1">
                    <mxGeometry y="-800" width="162" height="238" as="geometry"/>
                </mxCell>
                <mxCell id="k5NsuN3QZmuKokKL-RZl-36" value="email" style="shape=partialRectangle;top=0;left=0;right=0;bottom=0;align=left;verticalAlign=top;fillColor=#f5f5f5;spacingLeft=34;spacingRight=4;overflow=hidden;rotatable=0;points=[[0,0.5],[1,0.5]];portConstraint=eastwest;dropTarget=0;fontSize=12;fontColor=#333333;strokeColor=#666666;rounded=1;" parent="k5NsuN3QZmuKokKL-RZl-35" vertex="1">
                    <mxGeometry y="26" width="162" height="26" as="geometry"/>
                </mxCell>
                <mxCell id="k5NsuN3QZmuKokKL-RZl-37" value="" style="shape=partialRectangle;top=0;left=0;bottom=0;fillColor=#f5f5f5;align=left;verticalAlign=top;spacingLeft=4;spacingRight=4;overflow=hidden;rotatable=0;points=[];portConstraint=eastwest;part=1;fontSize=12;fontColor=#333333;strokeColor=#666666;rounded=1;" parent="k5NsuN3QZmuKokKL-RZl-36" vertex="1" connectable="0">
                    <mxGeometry width="30" height="26" as="geometry"/>
                </mxCell>
                <mxCell id="k5NsuN3QZmuKokKL-RZl-38" value="token&#10;" style="shape=partialRectangle;top=0;left=0;right=0;bottom=0;align=left;verticalAlign=top;fillColor=#f5f5f5;spacingLeft=34;spacingRight=4;overflow=hidden;rotatable=0;points=[[0,0.5],[1,0.5]];portConstraint=eastwest;dropTarget=0;fontSize=12;fontColor=#333333;strokeColor=#666666;rounded=1;" parent="k5NsuN3QZmuKokKL-RZl-35" vertex="1">
                    <mxGeometry y="52" width="162" height="26" as="geometry"/>
                </mxCell>
                <mxCell id="k5NsuN3QZmuKokKL-RZl-39" value="" style="shape=partialRectangle;top=0;left=0;bottom=0;fillColor=#f5f5f5;align=left;verticalAlign=top;spacingLeft=4;spacingRight=4;overflow=hidden;rotatable=0;points=[];portConstraint=eastwest;part=1;fontSize=12;fontColor=#333333;strokeColor=#666666;rounded=1;" parent="k5NsuN3QZmuKokKL-RZl-38" vertex="1" connectable="0">
                    <mxGeometry width="30" height="26" as="geometry"/>
                </mxCell>
                <mxCell id="k5NsuN3QZmuKokKL-RZl-40" value="notifications" style="swimlane;fontStyle=0;childLayout=stackLayout;horizontal=1;startSize=26;fillColor=#f5f5f5;horizontalStack=0;resizeParent=1;resizeParentMax=0;resizeLast=0;collapsible=1;marginBottom=0;swimlaneFillColor=#ffffff;align=center;fontSize=14;fontColor=#333333;strokeColor=#666666;rounded=1;" parent="k5NsuN3QZmuKokKL-RZl-35" vertex="1">
                    <mxGeometry y="78" width="162" height="160" as="geometry"/>
                </mxCell>
                <mxCell id="k5NsuN3QZmuKokKL-RZl-41" value="id" style="shape=partialRectangle;top=0;left=0;right=0;bottom=1;align=left;verticalAlign=middle;fillColor=#f5f5f5;spacingLeft=34;spacingRight=4;overflow=hidden;rotatable=0;points=[[0,0.5],[1,0.5]];portConstraint=eastwest;dropTarget=0;fontStyle=5;fontSize=12;fontColor=#333333;strokeColor=#666666;rounded=1;" parent="k5NsuN3QZmuKokKL-RZl-40" vertex="1">
                    <mxGeometry y="26" width="162" height="30" as="geometry"/>
                </mxCell>
                <mxCell id="k5NsuN3QZmuKokKL-RZl-42" value="PK" style="shape=partialRectangle;top=0;left=0;bottom=0;fillColor=#f5f5f5;align=left;verticalAlign=middle;spacingLeft=4;spacingRight=4;overflow=hidden;rotatable=0;points=[];portConstraint=eastwest;part=1;fontSize=12;fontColor=#333333;strokeColor=#666666;rounded=1;" parent="k5NsuN3QZmuKokKL-RZl-41" vertex="1" connectable="0">
                    <mxGeometry width="30" height="30" as="geometry"/>
                </mxCell>
                <mxCell id="k5NsuN3QZmuKokKL-RZl-43" value="type" style="shape=partialRectangle;top=0;left=0;right=0;bottom=0;align=left;verticalAlign=top;fillColor=#f5f5f5;spacingLeft=34;spacingRight=4;overflow=hidden;rotatable=0;points=[[0,0.5],[1,0.5]];portConstraint=eastwest;dropTarget=0;fontSize=12;fontColor=#333333;strokeColor=#666666;rounded=1;" parent="k5NsuN3QZmuKokKL-RZl-40" vertex="1">
                    <mxGeometry y="56" width="162" height="26" as="geometry"/>
                </mxCell>
                <mxCell id="k5NsuN3QZmuKokKL-RZl-44" value="" style="shape=partialRectangle;top=0;left=0;bottom=0;fillColor=#f5f5f5;align=left;verticalAlign=top;spacingLeft=4;spacingRight=4;overflow=hidden;rotatable=0;points=[];portConstraint=eastwest;part=1;fontSize=12;fontColor=#333333;strokeColor=#666666;rounded=1;" parent="k5NsuN3QZmuKokKL-RZl-43" vertex="1" connectable="0">
                    <mxGeometry width="30" height="26" as="geometry"/>
                </mxCell>
                <mxCell id="k5NsuN3QZmuKokKL-RZl-45" value="notifiable_id" style="shape=partialRectangle;top=0;left=0;right=0;bottom=0;align=left;verticalAlign=top;fillColor=#f5f5f5;spacingLeft=34;spacingRight=4;overflow=hidden;rotatable=0;points=[[0,0.5],[1,0.5]];portConstraint=eastwest;dropTarget=0;fontSize=12;fontColor=#333333;strokeColor=#666666;rounded=1;" parent="k5NsuN3QZmuKokKL-RZl-40" vertex="1">
                    <mxGeometry y="82" width="162" height="26" as="geometry"/>
                </mxCell>
                <mxCell id="k5NsuN3QZmuKokKL-RZl-46" value="" style="shape=partialRectangle;top=0;left=0;bottom=0;fillColor=#f5f5f5;align=left;verticalAlign=top;spacingLeft=4;spacingRight=4;overflow=hidden;rotatable=0;points=[];portConstraint=eastwest;part=1;fontSize=12;fontColor=#333333;strokeColor=#666666;rounded=1;" parent="k5NsuN3QZmuKokKL-RZl-45" vertex="1" connectable="0">
                    <mxGeometry width="30" height="26" as="geometry"/>
                </mxCell>
                <mxCell id="k5NsuN3QZmuKokKL-RZl-47" value="notifiable_type" style="shape=partialRectangle;top=0;left=0;right=0;bottom=0;align=left;verticalAlign=top;fillColor=#f5f5f5;spacingLeft=34;spacingRight=4;overflow=hidden;rotatable=0;points=[[0,0.5],[1,0.5]];portConstraint=eastwest;dropTarget=0;fontSize=12;fontColor=#333333;strokeColor=#666666;rounded=1;" parent="k5NsuN3QZmuKokKL-RZl-40" vertex="1">
                    <mxGeometry y="108" width="162" height="26" as="geometry"/>
                </mxCell>
                <mxCell id="k5NsuN3QZmuKokKL-RZl-48" value="" style="shape=partialRectangle;top=0;left=0;bottom=0;fillColor=#f5f5f5;align=left;verticalAlign=top;spacingLeft=4;spacingRight=4;overflow=hidden;rotatable=0;points=[];portConstraint=eastwest;part=1;fontSize=12;fontColor=#333333;strokeColor=#666666;rounded=1;" parent="k5NsuN3QZmuKokKL-RZl-47" vertex="1" connectable="0">
                    <mxGeometry width="30" height="26" as="geometry"/>
                </mxCell>
                <mxCell id="k5NsuN3QZmuKokKL-RZl-49" value="read_at" style="shape=partialRectangle;top=0;left=0;right=0;bottom=0;align=left;verticalAlign=top;fillColor=#f5f5f5;spacingLeft=34;spacingRight=4;overflow=hidden;rotatable=0;points=[[0,0.5],[1,0.5]];portConstraint=eastwest;dropTarget=0;fontSize=12;fontColor=#333333;strokeColor=#666666;rounded=1;" parent="k5NsuN3QZmuKokKL-RZl-40" vertex="1">
                    <mxGeometry y="134" width="162" height="26" as="geometry"/>
                </mxCell>
                <mxCell id="k5NsuN3QZmuKokKL-RZl-50" value="" style="shape=partialRectangle;top=0;left=0;bottom=0;fillColor=#f5f5f5;align=left;verticalAlign=top;spacingLeft=4;spacingRight=4;overflow=hidden;rotatable=0;points=[];portConstraint=eastwest;part=1;fontSize=12;fontColor=#333333;strokeColor=#666666;rounded=1;" parent="k5NsuN3QZmuKokKL-RZl-49" vertex="1" connectable="0">
                    <mxGeometry width="30" height="26" as="geometry"/>
                </mxCell>
                <mxCell id="NCR3lOCbP5tCAlC4qutH-0" value="merchants" style="swimlane;fontStyle=0;childLayout=stackLayout;horizontal=1;startSize=26;fillColor=#f5f5f5;horizontalStack=0;resizeParent=1;resizeParentMax=0;resizeLast=0;collapsible=1;marginBottom=0;swimlaneFillColor=#ffffff;align=center;fontSize=14;strokeColor=#666666;fontColor=#333333;rounded=1;" parent="vcM7IYLUsMrzzwx1DQUQ-1" vertex="1">
                    <mxGeometry x="441" y="-870" width="160" height="186" as="geometry">
                        <mxRectangle x="500" y="340" width="60" height="26" as="alternateBounds"/>
                    </mxGeometry>
                </mxCell>
                <mxCell id="NCR3lOCbP5tCAlC4qutH-1" value="id" style="shape=partialRectangle;top=0;left=0;right=0;bottom=1;align=left;verticalAlign=middle;fillColor=#f5f5f5;spacingLeft=34;spacingRight=4;overflow=hidden;rotatable=0;points=[[0,0.5],[1,0.5]];portConstraint=eastwest;dropTarget=0;fontStyle=5;fontSize=12;fontColor=#333333;strokeColor=#666666;rounded=1;" parent="NCR3lOCbP5tCAlC4qutH-0" vertex="1">
                    <mxGeometry y="26" width="160" height="30" as="geometry"/>
                </mxCell>
                <mxCell id="NCR3lOCbP5tCAlC4qutH-2" value="PK" style="shape=partialRectangle;top=0;left=0;bottom=0;fillColor=#f5f5f5;align=left;verticalAlign=middle;spacingLeft=4;spacingRight=4;overflow=hidden;rotatable=0;points=[];portConstraint=eastwest;part=1;fontSize=12;fontColor=#333333;strokeColor=#666666;rounded=1;" parent="NCR3lOCbP5tCAlC4qutH-1" vertex="1" connectable="0">
                    <mxGeometry width="30" height="30" as="geometry"/>
                </mxCell>
                <mxCell id="NCR3lOCbP5tCAlC4qutH-5" value="user_id" style="shape=partialRectangle;top=0;left=0;right=0;bottom=0;align=left;verticalAlign=top;fillColor=#f5f5f5;spacingLeft=34;spacingRight=4;overflow=hidden;rotatable=0;points=[[0,0.5],[1,0.5]];portConstraint=eastwest;dropTarget=0;fontSize=12;fontColor=#333333;strokeColor=#666666;rounded=1;" parent="NCR3lOCbP5tCAlC4qutH-0" vertex="1">
                    <mxGeometry y="56" width="160" height="26" as="geometry"/>
                </mxCell>
                <mxCell id="NCR3lOCbP5tCAlC4qutH-6" value="" style="shape=partialRectangle;top=0;left=0;bottom=0;fillColor=#f5f5f5;align=left;verticalAlign=top;spacingLeft=4;spacingRight=4;overflow=hidden;rotatable=0;points=[];portConstraint=eastwest;part=1;fontSize=12;fontColor=#333333;strokeColor=#666666;rounded=1;" parent="NCR3lOCbP5tCAlC4qutH-5" vertex="1" connectable="0">
                    <mxGeometry width="30" height="26" as="geometry"/>
                </mxCell>
                <mxCell id="NCR3lOCbP5tCAlC4qutH-3" value="name" style="shape=partialRectangle;top=0;left=0;right=0;bottom=0;align=left;verticalAlign=top;fillColor=#f5f5f5;spacingLeft=34;spacingRight=4;overflow=hidden;rotatable=0;points=[[0,0.5],[1,0.5]];portConstraint=eastwest;dropTarget=0;fontSize=12;fontColor=#333333;strokeColor=#666666;rounded=1;" parent="NCR3lOCbP5tCAlC4qutH-0" vertex="1">
                    <mxGeometry y="82" width="160" height="26" as="geometry"/>
                </mxCell>
                <mxCell id="NCR3lOCbP5tCAlC4qutH-4" value="" style="shape=partialRectangle;top=0;left=0;bottom=0;fillColor=#f5f5f5;align=left;verticalAlign=top;spacingLeft=4;spacingRight=4;overflow=hidden;rotatable=0;points=[];portConstraint=eastwest;part=1;fontSize=12;fontColor=#333333;strokeColor=#666666;rounded=1;" parent="NCR3lOCbP5tCAlC4qutH-3" vertex="1" connectable="0">
                    <mxGeometry width="30" height="26" as="geometry"/>
                </mxCell>
                <mxCell id="NCR3lOCbP5tCAlC4qutH-11" value="phone" style="shape=partialRectangle;top=0;left=0;right=0;bottom=0;align=left;verticalAlign=top;fillColor=#f5f5f5;spacingLeft=34;spacingRight=4;overflow=hidden;rotatable=0;points=[[0,0.5],[1,0.5]];portConstraint=eastwest;dropTarget=0;fontSize=12;fontColor=#333333;strokeColor=#666666;rounded=1;" parent="NCR3lOCbP5tCAlC4qutH-0" vertex="1">
                    <mxGeometry y="108" width="160" height="26" as="geometry"/>
                </mxCell>
                <mxCell id="NCR3lOCbP5tCAlC4qutH-12" value="" style="shape=partialRectangle;top=0;left=0;bottom=0;fillColor=#f5f5f5;align=left;verticalAlign=top;spacingLeft=4;spacingRight=4;overflow=hidden;rotatable=0;points=[];portConstraint=eastwest;part=1;fontSize=12;fontColor=#333333;strokeColor=#666666;rounded=1;" parent="NCR3lOCbP5tCAlC4qutH-11" vertex="1" connectable="0">
                    <mxGeometry width="30" height="26" as="geometry"/>
                </mxCell>
                <mxCell id="NCR3lOCbP5tCAlC4qutH-19" value="created_at" style="shape=partialRectangle;top=0;left=0;right=0;bottom=0;align=left;verticalAlign=top;fillColor=#f5f5f5;spacingLeft=34;spacingRight=4;overflow=hidden;rotatable=0;points=[[0,0.5],[1,0.5]];portConstraint=eastwest;dropTarget=0;fontSize=12;fontColor=#333333;strokeColor=#666666;rounded=1;" parent="NCR3lOCbP5tCAlC4qutH-0" vertex="1">
                    <mxGeometry y="134" width="160" height="26" as="geometry"/>
                </mxCell>
                <mxCell id="NCR3lOCbP5tCAlC4qutH-20" value="" style="shape=partialRectangle;top=0;left=0;bottom=0;fillColor=#f5f5f5;align=left;verticalAlign=top;spacingLeft=4;spacingRight=4;overflow=hidden;rotatable=0;points=[];portConstraint=eastwest;part=1;fontSize=12;fontColor=#333333;strokeColor=#666666;rounded=1;" parent="NCR3lOCbP5tCAlC4qutH-19" vertex="1" connectable="0">
                    <mxGeometry width="30" height="26" as="geometry"/>
                </mxCell>
                <mxCell id="NCR3lOCbP5tCAlC4qutH-21" value="updated_at" style="shape=partialRectangle;top=0;left=0;right=0;bottom=0;align=left;verticalAlign=top;fillColor=#f5f5f5;spacingLeft=34;spacingRight=4;overflow=hidden;rotatable=0;points=[[0,0.5],[1,0.5]];portConstraint=eastwest;dropTarget=0;fontSize=12;fontColor=#333333;strokeColor=#666666;rounded=1;" parent="NCR3lOCbP5tCAlC4qutH-0" vertex="1">
                    <mxGeometry y="160" width="160" height="26" as="geometry"/>
                </mxCell>
                <mxCell id="NCR3lOCbP5tCAlC4qutH-22" value="" style="shape=partialRectangle;top=0;left=0;bottom=0;fillColor=#f5f5f5;align=left;verticalAlign=top;spacingLeft=4;spacingRight=4;overflow=hidden;rotatable=0;points=[];portConstraint=eastwest;part=1;fontSize=12;fontColor=#333333;strokeColor=#666666;rounded=1;" parent="NCR3lOCbP5tCAlC4qutH-21" vertex="1" connectable="0">
                    <mxGeometry width="30" height="26" as="geometry"/>
                </mxCell>
                <mxCell id="0" style="edgeStyle=orthogonalEdgeStyle;orthogonalLoop=1;jettySize=auto;html=1;curved=1;" edge="1" parent="vcM7IYLUsMrzzwx1DQUQ-1" source="tAt5nxoeN-rRa-Il4vab-1" target="NCR3lOCbP5tCAlC4qutH-5">
                    <mxGeometry relative="1" as="geometry"/>
                </mxCell>
                <mxCell id="1" value="products" style="swimlane;fontStyle=0;childLayout=stackLayout;horizontal=1;startSize=26;fillColor=#f5f5f5;horizontalStack=0;resizeParent=1;resizeParentMax=0;resizeLast=0;collapsible=1;marginBottom=0;swimlaneFillColor=#ffffff;align=center;fontSize=14;strokeColor=#666666;fontColor=#333333;rounded=1;" vertex="1" parent="vcM7IYLUsMrzzwx1DQUQ-1">
                    <mxGeometry x="661" y="-870" width="160" height="212" as="geometry">
                        <mxRectangle x="500" y="340" width="60" height="26" as="alternateBounds"/>
                    </mxGeometry>
                </mxCell>
                <mxCell id="2" value="id" style="shape=partialRectangle;top=0;left=0;right=0;bottom=1;align=left;verticalAlign=middle;fillColor=#f5f5f5;spacingLeft=34;spacingRight=4;overflow=hidden;rotatable=0;points=[[0,0.5],[1,0.5]];portConstraint=eastwest;dropTarget=0;fontStyle=5;fontSize=12;fontColor=#333333;strokeColor=#666666;rounded=1;" vertex="1" parent="1">
                    <mxGeometry y="26" width="160" height="30" as="geometry"/>
                </mxCell>
                <mxCell id="3" value="PK" style="shape=partialRectangle;top=0;left=0;bottom=0;fillColor=#f5f5f5;align=left;verticalAlign=middle;spacingLeft=4;spacingRight=4;overflow=hidden;rotatable=0;points=[];portConstraint=eastwest;part=1;fontSize=12;fontColor=#333333;strokeColor=#666666;rounded=1;" vertex="1" connectable="0" parent="2">
                    <mxGeometry width="30" height="30" as="geometry"/>
                </mxCell>
                <mxCell id="8" value="merchant_id" style="shape=partialRectangle;top=0;left=0;right=0;bottom=0;align=left;verticalAlign=top;fillColor=#f5f5f5;spacingLeft=34;spacingRight=4;overflow=hidden;rotatable=0;points=[[0,0.5],[1,0.5]];portConstraint=eastwest;dropTarget=0;fontSize=12;fontColor=#333333;strokeColor=#666666;rounded=1;" vertex="1" parent="1">
                    <mxGeometry y="56" width="160" height="26" as="geometry"/>
                </mxCell>
                <mxCell id="9" value="" style="shape=partialRectangle;top=0;left=0;bottom=0;fillColor=#f5f5f5;align=left;verticalAlign=top;spacingLeft=4;spacingRight=4;overflow=hidden;rotatable=0;points=[];portConstraint=eastwest;part=1;fontSize=12;fontColor=#333333;strokeColor=#666666;rounded=1;" vertex="1" connectable="0" parent="8">
                    <mxGeometry width="30" height="26" as="geometry"/>
                </mxCell>
                <mxCell id="4" value="name" style="shape=partialRectangle;top=0;left=0;right=0;bottom=0;align=left;verticalAlign=top;fillColor=#f5f5f5;spacingLeft=34;spacingRight=4;overflow=hidden;rotatable=0;points=[[0,0.5],[1,0.5]];portConstraint=eastwest;dropTarget=0;fontSize=12;fontColor=#333333;strokeColor=#666666;rounded=1;" vertex="1" parent="1">
                    <mxGeometry y="82" width="160" height="26" as="geometry"/>
                </mxCell>
                <mxCell id="5" value="" style="shape=partialRectangle;top=0;left=0;bottom=0;fillColor=#f5f5f5;align=left;verticalAlign=top;spacingLeft=4;spacingRight=4;overflow=hidden;rotatable=0;points=[];portConstraint=eastwest;part=1;fontSize=12;fontColor=#333333;strokeColor=#666666;rounded=1;" vertex="1" connectable="0" parent="4">
                    <mxGeometry width="30" height="26" as="geometry"/>
                </mxCell>
                <mxCell id="15" value="description" style="shape=partialRectangle;top=0;left=0;right=0;bottom=0;align=left;verticalAlign=top;fillColor=#f5f5f5;spacingLeft=34;spacingRight=4;overflow=hidden;rotatable=0;points=[[0,0.5],[1,0.5]];portConstraint=eastwest;dropTarget=0;fontSize=12;fontColor=#333333;strokeColor=#666666;rounded=1;" vertex="1" parent="1">
                    <mxGeometry y="108" width="160" height="26" as="geometry"/>
                </mxCell>
                <mxCell id="16" value="" style="shape=partialRectangle;top=0;left=0;bottom=0;fillColor=#f5f5f5;align=left;verticalAlign=top;spacingLeft=4;spacingRight=4;overflow=hidden;rotatable=0;points=[];portConstraint=eastwest;part=1;fontSize=12;fontColor=#333333;strokeColor=#666666;rounded=1;" vertex="1" connectable="0" parent="15">
                    <mxGeometry width="30" height="26" as="geometry"/>
                </mxCell>
                <mxCell id="6" value="price" style="shape=partialRectangle;top=0;left=0;right=0;bottom=0;align=left;verticalAlign=top;fillColor=#f5f5f5;spacingLeft=34;spacingRight=4;overflow=hidden;rotatable=0;points=[[0,0.5],[1,0.5]];portConstraint=eastwest;dropTarget=0;fontSize=12;fontColor=#333333;strokeColor=#666666;rounded=1;" vertex="1" parent="1">
                    <mxGeometry y="134" width="160" height="26" as="geometry"/>
                </mxCell>
                <mxCell id="7" value="" style="shape=partialRectangle;top=0;left=0;bottom=0;fillColor=#f5f5f5;align=left;verticalAlign=top;spacingLeft=4;spacingRight=4;overflow=hidden;rotatable=0;points=[];portConstraint=eastwest;part=1;fontSize=12;fontColor=#333333;strokeColor=#666666;rounded=1;" vertex="1" connectable="0" parent="6">
                    <mxGeometry width="30" height="26" as="geometry"/>
                </mxCell>
                <mxCell id="10" value="created_at" style="shape=partialRectangle;top=0;left=0;right=0;bottom=0;align=left;verticalAlign=top;fillColor=#f5f5f5;spacingLeft=34;spacingRight=4;overflow=hidden;rotatable=0;points=[[0,0.5],[1,0.5]];portConstraint=eastwest;dropTarget=0;fontSize=12;fontColor=#333333;strokeColor=#666666;rounded=1;" vertex="1" parent="1">
                    <mxGeometry y="160" width="160" height="26" as="geometry"/>
                </mxCell>
                <mxCell id="11" value="" style="shape=partialRectangle;top=0;left=0;bottom=0;fillColor=#f5f5f5;align=left;verticalAlign=top;spacingLeft=4;spacingRight=4;overflow=hidden;rotatable=0;points=[];portConstraint=eastwest;part=1;fontSize=12;fontColor=#333333;strokeColor=#666666;rounded=1;" vertex="1" connectable="0" parent="10">
                    <mxGeometry width="30" height="26" as="geometry"/>
                </mxCell>
                <mxCell id="12" value="updated_at" style="shape=partialRectangle;top=0;left=0;right=0;bottom=0;align=left;verticalAlign=top;fillColor=#f5f5f5;spacingLeft=34;spacingRight=4;overflow=hidden;rotatable=0;points=[[0,0.5],[1,0.5]];portConstraint=eastwest;dropTarget=0;fontSize=12;fontColor=#333333;strokeColor=#666666;rounded=1;" vertex="1" parent="1">
                    <mxGeometry y="186" width="160" height="26" as="geometry"/>
                </mxCell>
                <mxCell id="13" value="" style="shape=partialRectangle;top=0;left=0;bottom=0;fillColor=#f5f5f5;align=left;verticalAlign=top;spacingLeft=4;spacingRight=4;overflow=hidden;rotatable=0;points=[];portConstraint=eastwest;part=1;fontSize=12;fontColor=#333333;strokeColor=#666666;rounded=1;" vertex="1" connectable="0" parent="12">
                    <mxGeometry width="30" height="26" as="geometry"/>
                </mxCell>
                <mxCell id="14" style="edgeStyle=orthogonalEdgeStyle;curved=1;rounded=0;orthogonalLoop=1;jettySize=auto;html=1;" edge="1" parent="vcM7IYLUsMrzzwx1DQUQ-1" source="NCR3lOCbP5tCAlC4qutH-1" target="8">
                    <mxGeometry relative="1" as="geometry"/>
                </mxCell>
            </root>
        </mxGraphModel>
    </diagram>
    <diagram id="qJ5WpqcXAYGiYcH5BDwA" name="Request life cycle">
        <mxGraphModel dx="1776" dy="771" grid="1" gridSize="10" guides="1" tooltips="1" connect="1" arrows="1" fold="1" page="1" pageScale="1" pageWidth="850" pageHeight="1100" math="0" shadow="0">
            <root>
                <mxCell id="vPlLT5pN4zHW__-pL-Tc-0"/>
                <mxCell id="vPlLT5pN4zHW__-pL-Tc-1" parent="vPlLT5pN4zHW__-pL-Tc-0"/>
                <mxCell id="9JlnYq2Dand_yF6pgm6V-21" value="eloquentAll" style="ellipse;whiteSpace=wrap;html=1;rounded=1;" parent="vPlLT5pN4zHW__-pL-Tc-1" vertex="1">
                    <mxGeometry x="60" y="180" width="120" height="60" as="geometry"/>
                </mxCell>
                <mxCell id="9JlnYq2Dand_yF6pgm6V-7" style="edgeStyle=orthogonalEdgeStyle;curved=1;rounded=0;orthogonalLoop=1;jettySize=auto;html=1;entryX=0.5;entryY=0;entryDx=0;entryDy=0;" parent="vPlLT5pN4zHW__-pL-Tc-1" source="9JlnYq2Dand_yF6pgm6V-0" target="9JlnYq2Dand_yF6pgm6V-1" edge="1">
                    <mxGeometry relative="1" as="geometry"/>
                </mxCell>
                <mxCell id="9JlnYq2Dand_yF6pgm6V-0" value="Controller" style="whiteSpace=wrap;html=1;rounded=1;" parent="vPlLT5pN4zHW__-pL-Tc-1" vertex="1">
                    <mxGeometry x="360" y="200" width="120" height="60" as="geometry"/>
                </mxCell>
                <mxCell id="9JlnYq2Dand_yF6pgm6V-14" style="edgeStyle=orthogonalEdgeStyle;curved=1;rounded=0;orthogonalLoop=1;jettySize=auto;html=1;entryX=0;entryY=0.5;entryDx=0;entryDy=0;" parent="vPlLT5pN4zHW__-pL-Tc-1" source="9JlnYq2Dand_yF6pgm6V-1" target="9JlnYq2Dand_yF6pgm6V-4" edge="1">
                    <mxGeometry relative="1" as="geometry">
                        <mxPoint x="290" y="430" as="targetPoint"/>
                    </mxGeometry>
                </mxCell>
                <mxCell id="9JlnYq2Dand_yF6pgm6V-1" value="RepositoryInterface" style="whiteSpace=wrap;html=1;rounded=1;" parent="vPlLT5pN4zHW__-pL-Tc-1" vertex="1">
                    <mxGeometry x="230" y="320" width="120" height="60" as="geometry"/>
                </mxCell>
                <mxCell id="9JlnYq2Dand_yF6pgm6V-4" value="EloquentRepository" style="whiteSpace=wrap;html=1;rounded=1;" parent="vPlLT5pN4zHW__-pL-Tc-1" vertex="1">
                    <mxGeometry x="345" y="460" width="150" height="60" as="geometry"/>
                </mxCell>
                <mxCell id="9JlnYq2Dand_yF6pgm6V-8" style="edgeStyle=orthogonalEdgeStyle;curved=1;rounded=0;orthogonalLoop=1;jettySize=auto;html=1;entryX=0.5;entryY=0;entryDx=0;entryDy=0;" parent="vPlLT5pN4zHW__-pL-Tc-1" source="9JlnYq2Dand_yF6pgm6V-5" target="9JlnYq2Dand_yF6pgm6V-0" edge="1">
                    <mxGeometry relative="1" as="geometry"/>
                </mxCell>
                <mxCell id="9JlnYq2Dand_yF6pgm6V-5" value="Request" style="whiteSpace=wrap;html=1;rounded=1;" parent="vPlLT5pN4zHW__-pL-Tc-1" vertex="1">
                    <mxGeometry x="360" y="80" width="120" height="60" as="geometry"/>
                </mxCell>
                <mxCell id="9JlnYq2Dand_yF6pgm6V-17" value="eloquentCreate" style="ellipse;whiteSpace=wrap;html=1;rounded=1;" parent="vPlLT5pN4zHW__-pL-Tc-1" vertex="1">
                    <mxGeometry x="60" y="320" width="120" height="60" as="geometry"/>
                </mxCell>
                <mxCell id="9JlnYq2Dand_yF6pgm6V-18" value="eloquentUpdate" style="ellipse;whiteSpace=wrap;html=1;rounded=1;" parent="vPlLT5pN4zHW__-pL-Tc-1" vertex="1">
                    <mxGeometry x="60" y="390" width="120" height="60" as="geometry"/>
                </mxCell>
                <mxCell id="9JlnYq2Dand_yF6pgm6V-19" value="eloquentDelete" style="ellipse;whiteSpace=wrap;html=1;rounded=1;" parent="vPlLT5pN4zHW__-pL-Tc-1" vertex="1">
                    <mxGeometry x="60" y="460" width="120" height="60" as="geometry"/>
                </mxCell>
                <mxCell id="9JlnYq2Dand_yF6pgm6V-20" value="eloquentFind" style="ellipse;whiteSpace=wrap;html=1;rounded=1;" parent="vPlLT5pN4zHW__-pL-Tc-1" vertex="1">
                    <mxGeometry x="60" y="250" width="120" height="60" as="geometry"/>
                </mxCell>
            </root>
        </mxGraphModel>
    </diagram>
</mxfile>
